<svg version="1.1" viewBox="0 0 640 400" xmlns="http://www.w3.org/2000/svg" xmlns:xlink="http://www.w3.org/1999/xlink" xmlns:svgjs="http://svgjs.dev/svgjs" matcher="0.5987555044464601"><g viewBox="0 0 640 400" matcher="0.5987555044464601"><g matcher="0.5987555044464601"><g matcher="0.5987555044464601"><g matcher="0.5987555044464601"><svg viewBox="0 0 640 400" data-background-color="#ececea" preserveAspectRatio="xMidYMid meet" height="400" width="640" xmlns="http://www.w3.org/2000/svg" xmlns:xlink="http://www.w3.org/1999/xlink"><rect width="640" height="400" x="0" y="0" opacity="1" fill="#ececea" data-fill-palette-color="background" id="background"></rect><g id="tight-bounds" transform="matrix(1,0,0,1,160,20)"><svg viewBox="0 0 320 360" height="360" width="320"><g><svg></svg></g><g><svg viewBox="0 0 320 360" height="360" width="320"><g><path xmlns="http://www.w3.org/2000/svg" d="M20.961 227.22l3.726 4.658-1.863-6.056c-0.466-2.795-3.726 0.466-1.863 1.398M25.153 224.425c1.397 2.329 2.795 4.658 2.795 6.987 0 3.261 2.795 4.658 5.123 5.589-3.261-3.726-5.124-13.974-7.918-12.576M204.017 26.929c7.918 0 15.371-0.932 23.756 0.931 20.495 5.124 37.729 15.371 49.374 29.811l32.606 52.169c1.397 13.042 4.192 27.482 3.726 43.319 3.261 0 2.795-4.658 6.521-5.59-3.726 9.316-5.59 20.961-6.521 34.469-2.329-7.453 0-18.632 0.466-24.687-3.261 5.124-5.124 1.397-5.124-0.932 0.466-3.726-1.397-3.261-2.795-4.658-5.124-4.658-8.384-9.782-12.11-17.7 2.329-6.055 2.795-14.905-4.658-19.563-2.329-1.397-5.124-3.726-6.521-7.453-1.863-5.124-5.124-11.179-4.193-19.097 0.466-2.329-6.987 5.124-11.179 1.863-18.166-12.576-36.332-27.016-58.224-39.127-11.645 0-20.029-4.192-24.221-9.316-3.726-4.658-0.932-10.713 4.658-11.179 3.261 0 6.987-0.932 9.782 0.932 0.466-1.863 2.329-4.192 4.657-4.192M157.904 16.215l0.932 0.466c4.658 0.932 6.987 7.453 12.11 5.124 0 3.261 0.466 6.521-0.466 8.85-1.397 3.726-5.59 3.726-8.85 3.726-31.208-1.863-49.374 11.179-68.471 22.358-5.124 3.261-10.713 5.59-14.906 9.782-20.029 18.632-41.921 35.866-47.045 70.335l-4.192 38.195c-0.466 4.192-5.124 8.384-4.192 13.508l3.26 22.824c-3.261-3.261-5.124 0.932-4.192 2.795 0.466 1.397 2.329 6.055 5.124 1.863 3.726 6.987 7.453 20.495 12.576 26.55 15.837 18.632 36.332 35.4 53.101 52.169 4.192-0.932 7.453-0.932 8.384-3.727 1.397 2.795-1.397 5.59-3.726 6.056 7.453 4.658 15.837 8.85 27.016 9.781 14.44 0.932 27.948 3.261 40.524 6.522 6.521-1.863 13.042-2.795 20.029-3.261 2.329 0 3.726-3.726 6.521-4.658l0.466-4.658c2.795 4.192 2.329-1.397 0.466-4.192 3.261 2.795 4.192 5.124 5.589 6.987 0-1.397 3.726-6.521 3.727-0.466l0.931-6.055c1.397-0.932 1.863 5.124 3.261 0.931 1.397-4.192 4.192-0.932 6.987-2.329-0.932 1.863-0.466 5.59 2.794 3.261l3.727-3.261c2.329 5.59 6.055 3.261 7.918 2.329 20.495-13.042 40.99-28.413 60.553-43.784l-0.466 6.055 2.329-7.453c2.329 2.329 4.192 0.466 5.124-0.931 2.795-4.658 6.521-9.316 12.577-13.508-7.453 20.029-16.303 35.866-27.482 48.908l-4.658 5.59c0 3.261-0.932 7.453-4.658 7.918-1.863 0.466-5.59-0.932-8.384 1.863-1.397 1.863 3.261 5.59-0.466 2.795-3.261-2.329-6.521 0-10.248 0.932-2.795 0.932 1.863 3.726 2.795 5.589 0.932 1.863 1.863 3.726 1.398 6.056l-5.124-5.59c-6.055 3.261-9.782 9.316-14.906 13.974-2.329 1.863-1.397 5.124-1.397 7.918-3.261 0-6.987-0.932-8.85 0.932-1.397 1.863-0.932 4.658-0.932 7.453-4.658-0.466-5.124-7.453-9.315-6.056-4.192 0.932-8.85 1.397-12.577 3.727 2.795 5.59-4.658 2.329-3.726 3.26-6.987-4.192-13.042-7.453-20.495-4.658-15.837-5.124-35.4-2.795-49.84-0.931 0-2.329 0.466-4.658-0.466-5.124-0.932 2.329-3.726 1.397-3.26 1.397-8.85-6.055-17.7-9.782-27.016-14.905-8.384 0.932-16.303-3.261-18.632-5.59-6.521-6.055-13.974-2.795-20.029-4.192-13.042-3.261-17.7-16.769-19.098-26.084-0.932-4.658-4.658-6.521-6.055-6.056-6.055-19.563-15.371-37.263-22.824-55.429-1.863-4.658-1.397-9.316-1.397-14.44 2.329 0.932 4.658 0.466 4.192-2.794-2.329-15.371-7.918-27.016-13.974-38.195 3.261-15.837 3.726-34.469 11.179-48.443 6.521-12.576 18.632-19.098 27.016-29.811 2.795-3.726 2.795-8.85 5.59-12.11 9.316-9.316 18.632-19.098 28.879-27.482 4.658-3.726 10.247 0 17.234-1.397 2.329-8.384 11.645-15.837 20.495-13.508 3.726 0.932 11.179-8.85 13.508-9.782 3.726-1.397 1.863 3.726 1.863 6.987 8.85-6.987 20.961-10.713 32.14-14.906" fill="#009b7d" fill-rule="nonzero" stroke="none" stroke-width="1" stroke-linecap="butt" stroke-linejoin="miter" stroke-miterlimit="10" stroke-dasharray="" stroke-dashoffset="0" font-family="none" font-weight="none" font-size="none" text-anchor="none" style="mix-blend-mode: normal" data-fill-palette-color="tertiary"></path></g><g transform="matrix(1,0,0,1,64,145.05308836311005)"><svg viewBox="0 0 192 69.89382327377989" height="69.89382327377989" width="192"><g><svg viewBox="0 0 192 69.89382327377989" height="69.89382327377989" width="192"><g><svg viewBox="0 0 307.41049658617817 111.9067443796836" height="69.89382327377989" width="192"><g><svg viewBox="0 0 192 111.9067443796836" height="111.9067443796836" width="192"><g id="textblocktransform"><svg viewBox="0 0 192 111.9067443796836" height="111.9067443796836" width="192" id="textblock"><g><svg viewBox="0 0 192 111.9067443796836" height="111.9067443796836" width="192"><g transform="matrix(1,0,0,1,0,0)"><svg width="192" viewBox="1.600000023841858 -35 60.05000305175781 35" height="111.9067443796836" data-palette-color="#009b7d"><path d="M17.6 0L14 0 14-14.8 1.6-35 5.4-35 16.55-16.7 16.85-16.7 25.75-35 29.55-35 17.6-15.5 17.6 0ZM48.75 0L45.35 0 45.35-34Q44.6-34 42.25-33.7L42.25-33.7 32.45-32.45 32.45-35 61.65-35 61.65-32.45 51.85-33.7Q49.5-34 48.75-34L48.75-34 48.75 0Z" opacity="1" transform="matrix(1,0,0,1,0,0)" fill="#009b7d" class="wordmark-text-0" data-fill-palette-color="primary" id="text-0"></path></svg></g></svg></g></svg></g></svg></g><g transform="matrix(1,0,0,1,218.41849658617818,11.478174635921498)"><svg viewBox="0 0 88.992 88.9503951078406" height="88.9503951078406" width="88.992"><g><svg xmlns="http://www.w3.org/2000/svg" xml:space="preserve" viewBox="0.7607695460319519 0.7749999761581421 30.439231872558594 30.42500114440918" x="0" y="0" height="88.9503951078406" width="88.992" class="icon-icon-0" data-fill-palette-color="accent" id="icon-0"><path d="M1.5 31.2c-0.2 0-0.4-0.1-0.5-0.2-0.2-0.2-0.3-0.4-0.2-0.7l3.7-19.1c0.1-0.3 0.3-0.6 0.6-0.6l9.6-1.3c0.2 0 0.5 0 0.6 0.2l7.2 7.2c0.2 0.2 0.2 0.4 0.2 0.6l-1.3 9.6c0 0.3-0.3 0.6-0.6 0.6L1.6 31.2z m4.3-19.1L2.4 29.6l17.5-3.4 1.2-8.7-6.7-6.7z" fill="#ffbf5d" data-fill-palette-color="accent"></path><path d="M1.977 31.044l-1.06-1.061 8.909-8.91 1.06 1.061z" fill="#ffbf5d" data-fill-palette-color="accent"></path><path d="M12 23.1c-0.8 0-1.6-0.3-2.2-0.9s-0.9-1.3-0.9-2.2c0-0.8 0.3-1.6 0.9-2.2 1.2-1.2 3.2-1.2 4.3 0 1.2 1.2 1.2 3.1 0 4.3-0.5 0.7-1.3 1-2.1 1m0-4.7c-0.4 0-0.8 0.2-1.1 0.5s-0.5 0.7-0.5 1.1 0.2 0.8 0.5 1.1c0.6 0.6 1.6 0.6 2.2 0s0.6-1.6 0-2.2c-0.3-0.3-0.7-0.5-1.1-0.5M23.8 18.7c-0.9 0-1.8-0.4-2.4-1l-7.1-7.1c-1.3-1.3-1.3-3.5 0-4.8L19.1 1c0.3-0.3 0.8-0.3 1.1 0L31 11.8c0.1 0.1 0.2 0.3 0.2 0.5s-0.1 0.4-0.2 0.5l-4.9 4.9c-0.6 0.7-1.4 1-2.3 1M19.7 2.6l-4.3 4.3c-0.7 0.7-0.7 2 0 2.7l7.1 7.1c0.7 0.7 2 0.7 2.7 0l4.3-4.3z" fill="#ffbf5d" data-fill-palette-color="accent"></path></svg></g></svg></g></svg></g></svg></g></svg></g></svg></g><defs></defs></svg><rect width="320" height="360" fill="none" stroke="none" visibility="hidden"></rect></g></svg></g></g></g></g><rect width="131.91789995107627" height="81.89380121697653" x="218.9999694227006" y="160.0530898361057" rx="2.5" ry="2.5" fill="transparent" class="logo-element-hover-target"></rect><rect width="67.58188600782785" height="67.55591441413895" x="355.41814456947156" y="167.22203323752444" rx="2.5" ry="2.5" fill="transparent" class="logo-element-hover-target"></rect></svg>